<svg width="24" height="24" viewBox="0 0 24 24" fill="none" xmlns="http://www.w3.org/2000/svg">
    <path d="M1.74859 11.1429C2.16259 6.14573 6.14573 2.16087 11.1429 1.74858V2.78573C11.1429 2.95622 11.2106 3.11974 11.3312 3.2403C11.4517 3.36085 11.6152 3.42858 11.7857 3.42858C11.9562 3.42858 12.1197 3.36085 12.2403 3.2403C12.3609 3.11974 12.4286 2.95622 12.4286 2.78573V1.72287C17.6246 1.93544 21.8263 6.00344 22.2506 11.1429H21.2134C21.0429 11.1429 20.8794 11.2106 20.7589 11.3312C20.6383 11.4517 20.5706 11.6152 20.5706 11.7857C20.5706 11.9562 20.6383 12.1197 20.7589 12.2403C20.8794 12.3609 21.0429 12.4286 21.2134 12.4286H22.2763C22.0577 17.7686 17.7677 22.0577 12.4277 22.2772V21.2143C12.4277 21.0438 12.36 20.8803 12.2394 20.7597C12.1189 20.6392 11.9554 20.5714 11.7849 20.5714C11.6144 20.5714 11.4509 20.6392 11.3303 20.7597C11.2097 20.8803 11.142 21.0438 11.142 21.2143V22.2506C6.00344 21.8263 1.9363 17.6246 1.72202 12.4277H2.78487C2.95537 12.4277 3.11888 12.36 3.23944 12.2394C3.36 12.1189 3.42773 11.9554 3.42773 11.7849C3.42773 11.6144 3.36 11.4509 3.23944 11.3303C3.11888 11.2097 2.95537 11.142 2.78487 11.142H1.7503L1.74859 11.1429ZM9.17316 12.3626C9.38841 12.9228 9.71891 13.4315 10.1433 13.8559C10.5676 14.2803 11.0764 14.6108 11.6366 14.826L15.9172 16.4717C15.9946 16.5015 16.079 16.5082 16.1602 16.491C16.2414 16.4738 16.3158 16.4333 16.3744 16.3746C16.4331 16.3159 16.4734 16.2414 16.4905 16.1602C16.5076 16.079 16.5008 15.9946 16.4709 15.9172L14.826 11.6366C14.6108 11.0764 14.2803 10.5676 13.8559 10.1433C13.4315 9.71891 12.9228 9.3884 12.3626 9.17316L8.08287 7.52744C8.00543 7.49762 7.92099 7.49092 7.83982 7.50817C7.75864 7.52541 7.68422 7.56585 7.62558 7.62457C7.56695 7.6833 7.52662 7.75778 7.50951 7.83899C7.49239 7.92019 7.49922 8.00462 7.52916 8.08201L9.17402 12.3626H9.17316Z" fill="white"/>
    </svg>