<svg width="41" height="41" viewBox="0 0 41 41" fill="none" xmlns="http://www.w3.org/2000/svg">
<path d="M38.8774 6.91637H31.2893L32.0326 3.94482L35.2258 2.85737C35.905 2.62655 36.3091 1.90491 36.1133 1.21494C36.0635 1.04137 35.9789 0.879739 35.8648 0.739838C35.7506 0.599936 35.6092 0.484685 35.4491 0.401074C35.2891 0.317464 35.1137 0.267237 34.9337 0.25344C34.7536 0.239643 34.5726 0.262564 34.4017 0.320812L30.4852 1.65409C30.2743 1.72601 30.0848 1.84965 29.934 2.01371C29.7832 2.17776 29.6759 2.377 29.6219 2.59322L28.5411 6.91637H17.6199C16.9025 6.91637 16.2866 7.46801 16.2508 8.18548C16.2421 8.36575 16.2701 8.54591 16.3331 8.71504C16.3961 8.88417 16.4928 9.03874 16.6173 9.1694C16.7418 9.30006 16.8916 9.40408 17.0574 9.47516C17.2233 9.54624 17.4019 9.5829 17.5824 9.58292H17.8116L17.8949 10.3046C17.9145 10.4731 17.9954 10.6285 18.1222 10.7413C18.2489 10.8541 18.4127 10.9163 18.5824 10.9162C21.8322 10.9162 24.7205 11.8245 26.9254 13.5428C28.1518 14.4877 29.1459 15.7005 29.8319 17.0884C30.2159 17.8691 30.4993 18.6954 30.6752 19.5475C30.7102 19.7135 30.8086 19.8594 30.9494 19.9541C32.0829 20.7233 32.9192 21.8572 33.3191 23.1674C33.719 24.4777 33.6585 25.8853 33.1476 27.1563C33.0882 27.3035 33.0837 27.467 33.1351 27.6172C33.4303 28.4631 33.5813 29.3527 33.5818 30.2487C33.5818 32.1103 32.9484 33.8844 31.7985 35.2443C31.1465 36.0205 30.3264 36.638 29.4003 37.0501C29.24 37.1207 29.114 37.2515 29.0494 37.4142C28.7033 38.3158 28.2146 39.1559 27.602 39.9025C27.5765 39.9328 27.5602 39.9697 27.5549 40.0089C27.5496 40.0482 27.5557 40.0881 27.5723 40.1241C27.5889 40.16 27.6154 40.1905 27.6487 40.2119C27.682 40.2333 27.7207 40.2448 27.7603 40.245H31.861C32.865 40.2408 33.8311 39.861 34.569 39.1803C35.307 38.4995 35.7634 37.5672 35.8483 36.5668L38.6982 9.58292H38.9149C39.0955 9.58313 39.2743 9.54664 39.4404 9.47566C39.6064 9.40468 39.7564 9.30069 39.8811 9.17001C40.0057 9.03932 40.1026 8.88467 40.1657 8.71543C40.2288 8.54619 40.2568 8.36589 40.2481 8.18548C40.2131 7.46801 39.5948 6.91637 38.8774 6.91637Z" fill="#F58231"/>
<path d="M7.9736 25.5823C8.23656 25.581 8.49715 25.6319 8.74031 25.7321C8.98347 25.8322 9.20436 25.9795 9.3902 26.1656L10.6826 27.458C10.7136 27.489 10.7504 27.5136 10.7908 27.5304C10.8313 27.5471 10.8747 27.5558 10.9185 27.5558C10.9623 27.5558 11.0057 27.5471 11.0461 27.5304C11.0866 27.5136 11.1233 27.489 11.1543 27.458L12.4442 26.1656C12.6301 25.9795 12.851 25.8322 13.0941 25.7321C13.3373 25.6319 13.5979 25.581 13.8608 25.5823H30.2418C30.3294 25.5831 30.4162 25.5668 30.4974 25.5341C30.5787 25.5014 30.6526 25.453 30.7152 25.3917C30.7777 25.3304 30.8275 25.2574 30.8618 25.1769C30.8962 25.0963 30.9143 25.0098 30.9151 24.9223V24.9156C30.9142 24.1475 30.6485 23.4032 30.1627 22.8082C29.677 22.2131 29.0009 21.8038 28.2486 21.6491C28.1802 19.175 27.1653 17.1043 25.2895 15.6493C23.5546 14.2961 21.2364 13.5828 18.5823 13.5828H12.5826C6.89781 13.5828 3.04714 16.8135 2.91631 21.6491C2.16394 21.8038 1.4879 22.2131 1.00217 22.8082C0.516429 23.4032 0.250694 24.1475 0.249756 24.9156C0.249756 25.0924 0.319991 25.262 0.44501 25.387C0.570029 25.512 0.739591 25.5823 0.916394 25.5823H7.9736Z" fill="#F58231"/>
<path d="M14.4108 28.2488C14.3233 28.2487 14.2365 28.2659 14.1556 28.2994C14.0747 28.3328 14.0011 28.3819 13.9392 28.4438L12.0943 30.2895C11.7817 30.602 11.3579 30.7775 10.916 30.7775C10.4741 30.7775 10.0502 30.602 9.73769 30.2895L7.89277 28.4438C7.83081 28.3819 7.75727 28.3328 7.67634 28.2994C7.59542 28.2659 7.50869 28.2487 7.42112 28.2488H1.63803C1.32484 28.2474 1.02124 28.3568 0.780917 28.5576C0.540591 28.7585 0.379014 29.0378 0.324753 29.3462C0.274692 29.6445 0.249606 29.9463 0.249757 30.2487C0.249757 32.7978 2.01052 34.8743 4.18792 34.9152C4.39041 36.1751 4.88039 37.3134 5.61786 38.2042C6.70865 39.5216 8.29442 40.2483 10.0827 40.2483H21.0822C22.8705 40.2483 24.4562 39.5216 25.547 38.2025C26.2845 37.3117 26.7745 36.1735 26.977 34.9135C29.1544 34.8743 30.9151 32.7978 30.9151 30.247C30.9153 29.9447 30.8902 29.6428 30.8401 29.3446C30.7855 29.0364 30.6238 28.7575 30.3835 28.557C30.1432 28.3565 29.8398 28.2473 29.5269 28.2488H14.4108Z" fill="#F58231"/>
</svg>
