<svg width="28" height="28" viewBox="0 0 28 28" fill="none" xmlns="http://www.w3.org/2000/svg">
<path d="M14 22L7.91 13.4C6.91318 12.2231 6.27124 10.7872 6.05896 9.25949C5.84667 7.73183 6.07276 6.17529 6.71091 4.77115C7.34906 3.36702 8.37299 2.17308 9.66346 1.32839C10.9539 0.483698 12.4578 0.0230174 14 0C16.1377 0.0211252 18.18 0.888594 19.6794 2.41241C21.1789 3.93623 22.0133 5.99219 22 8.13C22.0008 9.99494 21.3659 11.8044 20.2 13.26L14 22ZM14 2C12.3919 2.01847 10.8568 2.67438 9.73181 3.82371C8.60686 4.97303 7.984 6.52183 8 8.13C8.0067 9.59782 8.53478 11.0155 9.49 12.13L14 18.52L18.63 12C19.5101 10.9014 19.9929 9.5376 20 8.13C20.016 6.52183 19.3931 4.97303 18.2682 3.82371C17.1432 2.67438 15.6081 2.01847 14 2V2Z" fill="#686868"/>
<path d="M14 9C15.1046 9 16 8.10457 16 7C16 5.89543 15.1046 5 14 5C12.8954 5 12 5.89543 12 7C12 8.10457 12.8954 9 14 9Z" fill="#686868"/>
<path d="M26 10H24V12H26V26H2V12H4V10H2C1.46957 10 0.960859 10.2107 0.585786 10.5858C0.210714 10.9609 0 11.4696 0 12V26C0 26.5304 0.210714 27.0391 0.585786 27.4142C0.960859 27.7893 1.46957 28 2 28H26C26.5304 28 27.0391 27.7893 27.4142 27.4142C27.7893 27.0391 28 26.5304 28 26V12C28 11.4696 27.7893 10.9609 27.4142 10.5858C27.0391 10.2107 26.5304 10 26 10Z" fill="#686868"/>
</svg>
