<svg width="14" height="14" viewBox="0 0 14 14" fill="none" xmlns="http://www.w3.org/2000/svg">
<path d="M7.648 5.648L12.29 1H9V2.94064e-07H14V5H13V1.71L8.352 6.353L7.648 5.649V5.648ZM10.953 8.211C11.3657 8.21101 11.7616 8.37379 12.055 8.664C12.165 8.774 12.287 8.888 12.422 9.008L12.852 9.391C13.002 9.526 13.143 9.667 13.273 9.812C13.403 9.958 13.526 10.107 13.641 10.258C13.755 10.408 13.841 10.57 13.898 10.742C13.956 10.914 13.99 11.086 14 11.258C13.9996 11.6703 13.8369 12.0658 13.547 12.359C13.281 12.625 13.042 12.859 12.828 13.063C12.6253 13.2575 12.4028 13.4301 12.164 13.578C11.934 13.718 11.677 13.823 11.391 13.891C11.0599 13.9636 10.7219 14.0002 10.383 14C9.7899 13.9961 9.20048 13.9065 8.633 13.734C8.01363 13.5489 7.41405 13.303 6.843 13C6.23268 12.6766 5.65033 12.303 5.102 11.883C4.53301 11.4498 3.99503 10.9773 3.492 10.469C2.987 9.959 2.518 9.419 2.086 8.852C1.66822 8.30729 1.29945 7.7267 0.984 7.117C0.690605 6.54936 0.450251 5.95584 0.266 5.344C0.0943734 4.78695 0.00476689 4.20787 0 3.625C0 3.229 0.034 2.891 0.102 2.609C0.165048 2.33916 0.270347 2.08097 0.414 1.844C0.554 1.614 0.727 1.394 0.93 1.18C1.133 0.966 1.37 0.724 1.64 0.453C1.9336 0.162547 2.33 -0.000252544 2.743 2.94064e-07C3.003 2.94064e-07 3.253 0.0700003 3.493 0.21C3.733 0.352 3.965 0.523 4.189 0.727C4.412 0.93 4.619 1.143 4.806 1.367C4.993 1.591 5.17 1.784 5.336 1.945C5.62621 2.23836 5.78899 2.63435 5.789 3.047C5.79258 3.23419 5.75857 3.42019 5.689 3.594C5.62569 3.74808 5.54158 3.89276 5.439 4.024C5.33896 4.14967 5.22894 4.26705 5.11 4.375C4.99 4.485 4.881 4.589 4.782 4.688C4.69011 4.77891 4.60395 4.87543 4.524 4.977C4.45315 5.06506 4.41719 5.17612 4.423 5.289C4.423 5.352 4.47 5.451 4.563 5.586C4.68374 5.75485 4.8143 5.91646 4.954 6.07C5.34237 6.50637 5.7463 6.92864 6.165 7.336C6.399 7.566 6.626 7.786 6.845 8C7.063 8.214 7.275 8.417 7.478 8.61C7.681 8.802 7.853 8.966 7.993 9.102C8.133 9.237 8.243 9.342 8.321 9.414C8.41008 9.50638 8.52945 9.56359 8.65726 9.57516C8.78507 9.58673 8.91278 9.55189 9.017 9.477C9.11 9.409 9.207 9.325 9.306 9.227C9.405 9.127 9.506 9.018 9.61 8.898C9.714 8.778 9.834 8.669 9.97 8.57C10.105 8.471 10.248 8.385 10.4 8.312C10.5742 8.23523 10.764 8.20063 10.954 8.211H10.953ZM10.383 13C10.701 13 10.966 12.971 11.18 12.914C11.3888 12.8588 11.5869 12.7688 11.766 12.648C11.943 12.528 12.109 12.388 12.266 12.227C12.422 12.065 12.612 11.875 12.836 11.657C12.946 11.547 13 11.417 13 11.266C13 11.198 12.958 11.102 12.875 10.976C12.7767 10.8313 12.6723 10.6908 12.562 10.555C12.4288 10.3894 12.2852 10.2324 12.132 10.085C11.972 9.93 11.815 9.786 11.664 9.656C11.5326 9.54107 11.3943 9.43421 11.25 9.336C11.125 9.253 11.026 9.211 10.953 9.211C10.8411 9.21184 10.7322 9.2471 10.641 9.312C10.5357 9.38479 10.4385 9.4686 10.351 9.562C10.258 9.662 10.156 9.771 10.047 9.891C9.937 10.011 9.817 10.12 9.687 10.219C9.557 10.318 9.414 10.404 9.257 10.477C9.08531 10.5526 8.89837 10.5872 8.711 10.578C8.50583 10.5793 8.30251 10.5392 8.11317 10.4602C7.92383 10.3812 7.75236 10.2648 7.609 10.118L3.883 6.39C3.73912 6.24713 3.62492 6.0772 3.547 5.89C3.4681 5.6989 3.4257 5.49471 3.422 5.288C3.422 5.085 3.456 4.905 3.523 4.749C3.591 4.593 3.674 4.447 3.773 4.311C3.873 4.176 3.982 4.059 4.102 3.96C4.222 3.861 4.331 3.757 4.43 3.647C4.529 3.538 4.615 3.442 4.688 3.358C4.76166 3.27148 4.79798 3.15927 4.789 3.046C4.789 2.978 4.747 2.882 4.664 2.756C4.56708 2.61313 4.46294 2.47528 4.352 2.343C4.21607 2.18003 4.07258 2.02353 3.922 1.874C3.77248 1.72341 3.61597 1.57992 3.453 1.444C3.31739 1.33082 3.17657 1.22404 3.031 1.124C2.901 1.035 2.805 0.994 2.742 0.999C2.66798 0.997704 2.59447 1.01159 2.52602 1.03979C2.45757 1.068 2.39562 1.10993 2.344 1.163C2.15515 1.35183 1.96515 1.5395 1.774 1.726C1.61594 1.87717 1.47447 2.04479 1.352 2.226C1.23347 2.40533 1.14623 2.60348 1.094 2.812C1.03173 3.07038 1.00018 3.33522 1 3.601C1 4.101 1.08 4.616 1.242 5.147C1.41404 5.70391 1.63907 6.24304 1.914 6.757C2.201 7.298 2.544 7.825 2.945 8.335C3.346 8.845 3.776 9.332 4.235 9.795C5.13373 10.7044 6.15977 11.4785 7.281 12.093C7.78547 12.3682 8.31694 12.5907 8.867 12.757C9.35861 12.9078 9.86887 12.9893 10.383 12.999V13Z" fill="#686868"/>
</svg>
