<svg width="41" height="41" viewBox="0 0 41 41" fill="none" xmlns="http://www.w3.org/2000/svg">
<path d="M16.5005 28.7512C14.3657 28.7468 12.3187 27.9009 10.8036 26.3969L9.64855 25.2419C9.52356 25.1172 9.35423 25.0472 9.17769 25.0472C9.00115 25.0472 8.83182 25.1172 8.70684 25.2419L1.62318 32.2889C0.360619 33.5514 -0.0902351 35.4098 0.534794 37.2299C0.569776 37.3325 0.61125 37.4327 0.658966 37.5299C1.49984 39.2517 3.13158 40.2517 4.91666 40.2517C5.53055 40.2532 6.13864 40.1329 6.7057 39.8977C7.27276 39.6626 7.78751 39.3172 8.22015 38.8817L17.6672 29.3896C17.707 29.349 17.7375 29.3002 17.7565 29.2467C17.7755 29.1932 17.7826 29.1361 17.7773 29.0796V29.0579C17.7735 29.0059 17.7594 28.9552 17.7355 28.9089C17.7117 28.8626 17.6788 28.8216 17.6387 28.7883C17.5986 28.755 17.5521 28.7303 17.5022 28.7154C17.4522 28.7006 17.3998 28.6961 17.3481 28.702C17.0666 28.7332 16.7837 28.7497 16.5005 28.7512Z" fill="#E6194B"/>
<path d="M28.7152 17.5791C29.5912 17.5815 30.4591 17.4101 31.2685 17.0748C32.0778 16.7395 32.8127 16.2469 33.4304 15.6257L39.8473 9.21287C40.3549 8.70535 40.4015 7.87948 39.9182 7.34695C39.7968 7.21316 39.6496 7.10542 39.4853 7.03026C39.3211 6.9551 39.1433 6.9141 38.9627 6.90974C38.7821 6.90537 38.6026 6.93774 38.4349 7.00487C38.2672 7.07201 38.1149 7.17251 37.9873 7.30028L32.2678 13.0155C32.0758 13.2073 31.8155 13.3151 31.544 13.3151C31.2726 13.3151 31.0123 13.2073 30.8203 13.0155C30.4211 12.6172 30.4427 11.9438 30.8411 11.5455L36.5355 5.85105C36.6632 5.7234 36.7635 5.57115 36.8306 5.40355C36.8977 5.23595 36.93 5.05647 36.9256 4.87601C36.9213 4.69554 36.8803 4.51784 36.8052 4.35367C36.7301 4.18951 36.6225 4.04229 36.4888 3.92096C36.2475 3.70209 35.9329 3.58165 35.6071 3.58345C35.2379 3.5837 34.8839 3.73058 34.6229 3.9918L28.9335 9.68039C28.7415 9.8722 28.4811 9.97993 28.2097 9.97993C27.9383 9.97993 27.678 9.8722 27.4859 9.68039C27.0876 9.28204 27.1084 8.60868 27.5068 8.21032L33.2012 2.51756C33.3288 2.38991 33.4292 2.23767 33.4963 2.07007C33.5633 1.90246 33.5957 1.72299 33.5913 1.54252C33.5869 1.36205 33.546 1.18435 33.4709 1.02019C33.3958 0.85602 33.2882 0.708809 33.1545 0.587474C32.9132 0.368599 32.5986 0.248166 32.2728 0.249959C31.9036 0.250396 31.5497 0.397251 31.2886 0.658311L24.8758 7.07111C24.2545 7.68894 23.7619 8.4239 23.4266 9.23342C23.0913 10.0429 22.9199 10.9109 22.9224 11.7872V12.473C22.9225 12.6484 22.8881 12.822 22.821 12.9841C22.7539 13.1461 22.6556 13.2933 22.5315 13.4172L19.5639 16.3857C19.5329 16.4167 19.4962 16.4413 19.4557 16.4581C19.4152 16.4748 19.3719 16.4835 19.3281 16.4835C19.2842 16.4835 19.2409 16.4748 19.2004 16.4581C19.1599 16.4413 19.1232 16.4167 19.0922 16.3857L4.65155 1.9442C4.40231 1.69468 4.06437 1.55407 3.7117 1.55313C3.35903 1.55219 3.02035 1.69101 2.76979 1.9392C1.50723 3.19009 0.833036 4.95601 0.833036 7.04527C0.824703 10.4954 2.63812 14.4623 5.56575 17.3857L12.6869 24.5069C13.699 25.517 15.0705 26.0843 16.5004 26.0845C16.9563 26.0847 17.4103 26.0264 17.8513 25.9111C17.9621 25.8821 18.076 25.8673 18.1905 25.867C18.5252 25.867 18.8476 25.9935 19.093 26.2212L20.0423 27.0979C20.2871 27.348 20.4246 27.6838 20.4256 28.0337V28.4954C20.4232 29.545 20.8356 30.553 21.5732 31.2997L29.0777 38.9309L29.0852 38.9392C29.9181 39.7721 31.0478 40.2399 32.2256 40.2398C33.4035 40.2397 34.5331 39.7717 35.3659 38.9388C36.1987 38.1059 36.6665 36.9762 36.6665 35.7984C36.6664 34.6205 36.1984 33.4909 35.3655 32.6581L24.1166 21.4093C24.0856 21.3783 24.061 21.3415 24.0443 21.3011C24.0275 21.2606 24.0188 21.2172 24.0188 21.1734C24.0188 21.1296 24.0275 21.0862 24.0443 21.0458C24.061 21.0053 24.0856 20.9685 24.1166 20.9376L27.0842 17.9699C27.2081 17.846 27.3552 17.7477 27.517 17.6806C27.6789 17.6136 27.8524 17.5791 28.0276 17.5791H28.7152Z" fill="#E6194B"/>
</svg>
